<svg xmlns="http://www.w3.org/2000/svg" xmlns:xlink="http://www.w3.org/1999/xlink" width="91" height="90" viewBox="0 0 91 90">
  <defs>
    <clipPath id="clip-ติดต่อ">
      <rect width="91" height="90"/>
    </clipPath>
  </defs>
  <g id="ติดต่อ" clip-path="url(#clip-ติดต่อ)">
    <g id="Group_12434" data-name="Group 12434" transform="translate(2.623 2.032)">
      <path id="Path_16877" data-name="Path 16877" d="M3077.023,1475.676c1.487.211,2.986.369,4.462.639a36.08,36.08,0,0,1,15.844,7.251,39.611,39.611,0,0,1,12.823,17.19,37.741,37.741,0,0,1,2.285,15.311,3.08,3.08,0,0,1-3.2,3.179,3.16,3.16,0,0,1-3.495-2.978c-.257-1.993-.353-4.014-.7-5.989-.975-5.582-2.652-10.906-6.042-15.558a26.758,26.758,0,0,0-11.695-8.959,49.567,49.567,0,0,0-13.538-3.344c-2.054-.234-3.1-1.084-3.232-2.662-.145-1.815.664-3.561,2.589-3.948.074-.013.138-.087.206-.132Z" transform="translate(-3028.802 -1475.676)" fill="#1fa361"/>
      <path id="Path_16878" data-name="Path 16878" d="M3054.128,1492.461c.13-6.146,3.213-10.41,8.52-13.212a14.117,14.117,0,0,1,5.6-1.855,7.558,7.558,0,0,1,5.661,1.822,39.935,39.935,0,0,1,7.093,8.025,84.449,84.449,0,0,1,5.033,8.394c2.015,3.854.455,7.231-2.553,9.5-.514.387-1.041.753-1.55,1.145-2.528,1.947-3.187,4.085-2.053,7.089a32.006,32.006,0,0,0,5.932,9.762,37.919,37.919,0,0,0,12.907,9.427c1.57.728,3.262,1.366,4.881.379a10.094,10.094,0,0,0,2.443-2.461,11.7,11.7,0,0,1,4.36-3.706,8.035,8.035,0,0,1,7.212.265,62.719,62.719,0,0,1,6.939,4.365c2.532,1.787,5,3.685,7.388,5.661,3.431,2.83,4.263,6.042,2.462,10.1a20.013,20.013,0,0,1-13.474,11.53c-2.716.771-5.225-.041-7.641-1.082a114.761,114.761,0,0,1-26.828-16.042,100.438,100.438,0,0,1-18.544-19.651,110.338,110.338,0,0,1-12.188-22.122A18.975,18.975,0,0,1,3054.128,1492.461Z" transform="translate(-3054.128 -1473.057)" fill="#1fa361"/>
      <path id="Path_16879" data-name="Path 16879" d="M3100.454,1505.161a26.917,26.917,0,0,1-.209,2.835,2.948,2.948,0,0,1-3.128,2.474,2.853,2.853,0,0,1-3.225-2.209c-.344-1.489-.43-3.039-.718-4.543a23.229,23.229,0,0,0-3.367-9.038,15.3,15.3,0,0,0-8.274-5.836c-2.356-.759-4.795-1.268-7.207-1.843-1.448-.346-2.746-.822-3.164-2.466a3.489,3.489,0,0,1,3.674-4.533c9.995.822,17.756,5.312,22.754,14.148A22.619,22.619,0,0,1,3100.454,1505.161Z" transform="translate(-3028.013 -1469.013)" fill="#1fa361"/>
      <path id="Path_16880" data-name="Path 16880" d="M3076.049,1484.387a14.8,14.8,0,0,1,12.764,12.779,9.609,9.609,0,0,1-.2,2.655,3.055,3.055,0,0,1-2.947,2.524,3.166,3.166,0,0,1-3.313-2.176,11.848,11.848,0,0,1-.5-2.286,7.2,7.2,0,0,0-5.811-6.266c-.761-.173-1.535-.307-2.277-.542a2.808,2.808,0,0,1-2.218-2.538,3.464,3.464,0,0,1,1.858-3.476A18.016,18.016,0,0,1,3076.049,1484.387Z" transform="translate(-3027.241 -1462.217)" fill="#1fa361"/>
    </g>
  </g>
</svg>
